<?xml version="1.0" encoding="UTF-8"?><svg id="Layer_1" xmlns="http://www.w3.org/2000/svg" viewBox="0 0 686.84 109.05"><g isolation="isolate"><g isolation="isolate"><path d="M15.41,77.18c1.02.19,1.53.89,1.53,2.09,0,1.1-.5,2.23-1.5,3.38-1,1.15-2.12,1.73-3.36,1.73-2.2,0-3.82-1-4.86-2.99-1.04-1.99-1.56-5.15-1.56-9.47,0-3.46.14-7.07.42-10.84.28-3.77.55-7.09.81-9.97.26-2.88,1.89-4.32,4.89-4.32,1.04,0,1.96.29,2.76.86s1.2,1.49,1.2,2.74c0,.48-.31,3.14-.93,7.99-.62,4.85-.93,9.19-.93,13.03s.51,5.57,1.53,5.76ZM7.82,38.98c-.68-1.13-1.02-2.48-1.02-4.07,0-1.49.61-2.76,1.83-3.82,1.22-1.06,2.49-1.58,3.81-1.58,1.12,0,2.25.48,3.39,1.44,1.14.96,1.71,2.23,1.71,3.82,0,1.87-.6,3.32-1.8,4.36-1.2,1.03-2.8,1.55-4.8,1.55-1.4,0-2.44-.56-3.12-1.69Z" fill="#f3b449"/></g><g isolation="isolate"><path d="M15.41,77.18c1.02.19,1.53.89,1.53,2.09,0,1.1-.5,2.23-1.5,3.38-1,1.15-2.12,1.73-3.36,1.73-2.2,0-3.82-1-4.86-2.99-1.04-1.99-1.56-5.15-1.56-9.47,0-3.46.14-7.07.42-10.84.28-3.77.55-7.09.81-9.97.26-2.88,1.89-4.32,4.89-4.32,1.04,0,1.96.29,2.76.86s1.2,1.49,1.2,2.74c0,.48-.31,3.14-.93,7.99-.62,4.85-.93,9.19-.93,13.03s.51,5.57,1.53,5.76ZM7.82,38.98c-.68-1.13-1.02-2.48-1.02-4.07,0-1.49.61-2.76,1.83-3.82,1.22-1.06,2.49-1.58,3.81-1.58,1.12,0,2.25.48,3.39,1.44,1.14.96,1.71,2.23,1.71,3.82,0,1.87-.6,3.32-1.8,4.36-1.2,1.03-2.8,1.55-4.8,1.55-1.4,0-2.44-.56-3.12-1.69Z" fill="none" stroke="#231f20"/></g></g><g isolation="isolate"><g isolation="isolate"><path d="M20.69,61.14h10.53c.55,7.71,3.79,11.14,9.67,11.14,4.04,0,7.83-2.48,7.83-8.28,0-6.19-3.86-7.52-10.47-9.9-8.88-3.14-16.1-6.57-16.1-21.32s7.71-21.32,17.75-21.32,17.14,7.23,17.81,21.13h-10.22c-.55-5.52-3.37-8.76-7.9-8.76-4.28,0-7.16,2.86-7.16,7.33,0,5.52,3.92,6.76,11.08,9.23,8.2,2.86,15.73,7.04,15.73,21.99s-7.96,22.85-18.36,22.85c-12.18,0-19.89-8.76-20.2-24.09Z" fill="#f3b449"/></g><g isolation="isolate"><path d="M20.69,61.14h10.53c.55,7.71,3.79,11.14,9.67,11.14,4.04,0,7.83-2.48,7.83-8.28,0-6.19-3.86-7.52-10.47-9.9-8.88-3.14-16.1-6.57-16.1-21.32s7.71-21.32,17.75-21.32,17.14,7.23,17.81,21.13h-10.22c-.55-5.52-3.37-8.76-7.9-8.76-4.28,0-7.16,2.86-7.16,7.33,0,5.52,3.92,6.76,11.08,9.23,8.2,2.86,15.73,7.04,15.73,21.99s-7.96,22.85-18.36,22.85c-12.18,0-19.89-8.76-20.2-24.09Z" fill="none" stroke="#231f20"/></g></g><g isolation="isolate"><g isolation="isolate"><path d="M60.72,62.84c0-12.48,6.38-22,16.08-22s15.96,9.52,15.96,22-6.33,22-15.96,22-16.08-9.59-16.08-22ZM83.69,62.84c0-7.88-2.51-13.26-6.95-13.26s-6.96,5.38-6.96,13.26,2.39,13.1,6.96,13.1,6.95-5.3,6.95-13.1Z" fill="#f3b449"/><path d="M95.15,25.48h9.01v58.03h-9.01V25.48Z" fill="#f3b449"/><path d="M126.33,78.44h-.11c-2,3.82-4.5,6.16-9.18,6.16-5.99,0-10.38-4.37-10.38-12.56,0-9.2,5.3-11.54,11.92-12.64,5.42-1.01,7.64-2.18,7.64-5.3s-1.42-4.99-4.5-4.99c-3.42,0-5.07,2.18-5.3,5.46h-8.27c.23-7.1,4.45-13.73,13.45-13.73,3.88,0,6.61.78,8.72,2.5,3.13,2.5,4.62,6.79,4.62,12.4v21.29c0,3.28.34,5.07,1.14,5.77v.7h-8.72c-.46-.94-.85-2.73-1.03-5.07ZM126.44,68.62v-5.38c-1.31,1.09-3.25,1.72-5.24,2.34-3.93,1.17-5.81,2.5-5.81,6.08s2,4.91,4.45,4.91c3.99,0,6.61-3.43,6.61-7.96Z" fill="#f3b449"/><path d="M147.36,49.43h.17c1.94-5.77,4.67-8.11,8.44-8.11.85,0,1.48.08,1.88.31v10.69h-.23c-.63-.16-1.25-.23-1.88-.23-4.85-.08-8.04,4.06-8.04,12.17v19.27h-8.95v-41.5h8.61v7.41Z" fill="#f3b449"/></g><g isolation="isolate"><path d="M60.72,62.84c0-12.48,6.38-22,16.08-22s15.96,9.52,15.96,22-6.33,22-15.96,22-16.08-9.59-16.08-22ZM83.69,62.84c0-7.88-2.51-13.26-6.95-13.26s-6.96,5.38-6.96,13.26,2.39,13.1,6.96,13.1,6.95-5.3,6.95-13.1Z" fill="none" stroke="#231f20"/><path d="M95.15,25.48h9.01v58.03h-9.01V25.48Z" fill="none" stroke="#231f20"/><path d="M126.33,78.44h-.11c-2,3.82-4.5,6.16-9.18,6.16-5.99,0-10.38-4.37-10.38-12.56,0-9.2,5.3-11.54,11.92-12.64,5.42-1.01,7.64-2.18,7.64-5.3s-1.42-4.99-4.5-4.99c-3.42,0-5.07,2.18-5.3,5.46h-8.27c.23-7.1,4.45-13.73,13.45-13.73,3.88,0,6.61.78,8.72,2.5,3.13,2.5,4.62,6.79,4.62,12.4v21.29c0,3.28.34,5.07,1.14,5.77v.7h-8.72c-.46-.94-.85-2.73-1.03-5.07ZM126.44,68.62v-5.38c-1.31,1.09-3.25,1.72-5.24,2.34-3.93,1.17-5.81,2.5-5.81,6.08s2,4.91,4.45,4.91c3.99,0,6.61-3.43,6.61-7.96Z" fill="none" stroke="#231f20"/><path d="M147.36,49.43h.17c1.94-5.77,4.67-8.11,8.44-8.11.85,0,1.48.08,1.88.31v10.69h-.23c-.63-.16-1.25-.23-1.88-.23-4.85-.08-8.04,4.06-8.04,12.17v19.27h-8.95v-41.5h8.61v7.41Z" fill="none" stroke="#231f20"/></g></g><g isolation="isolate"><g isolation="isolate"><path d="M172.78,26.82h9.18v21.87h15.17v-21.87h9.18v56.69h-9.18v-24h-15.17v24h-9.18V26.82Z" fill="#f3b449"/></g><g isolation="isolate"><path d="M172.78,26.82h9.18v21.87h15.17v-21.87h9.18v56.69h-9.18v-24h-15.17v24h-9.18V26.82Z" fill="none" stroke="#001"/></g></g><g isolation="isolate"><g isolation="isolate"><path d="M209.31,62.84c0-12.48,6.38-22,16.08-22s15.96,9.52,15.96,22-6.33,22-15.96,22-16.08-9.59-16.08-22ZM232.28,62.84c0-7.88-2.51-13.26-6.95-13.26s-6.96,5.38-6.96,13.26,2.39,13.1,6.96,13.1,6.95-5.3,6.95-13.1Z" fill="#f3b449"/><path d="M241.29,42.02h4.56v-13.26h8.78v13.26h5.93v7.8h-5.93v20.59c0,3.12,1.25,3.98,3.36,3.98.57,0,1.48-.08,2.05-.16h.46v9.13c-.97.23-2.79.62-5.19.62-5.64,0-9.46-2.5-9.46-10.92v-23.25h-4.56v-7.8Z" fill="#f3b449"/></g><g isolation="isolate"><path d="M209.31,62.84c0-12.48,6.38-22,16.08-22s15.96,9.52,15.96,22-6.33,22-15.96,22-16.08-9.59-16.08-22ZM232.28,62.84c0-7.88-2.51-13.26-6.95-13.26s-6.96,5.38-6.96,13.26,2.39,13.1,6.96,13.1,6.95-5.3,6.95-13.1Z" fill="none" stroke="#001"/><path d="M241.29,42.02h4.56v-13.26h8.78v13.26h5.93v7.8h-5.93v20.59c0,3.12,1.25,3.98,3.36,3.98.57,0,1.48-.08,2.05-.16h.46v9.13c-.97.23-2.79.62-5.19.62-5.64,0-9.46-2.5-9.46-10.92v-23.25h-4.56v-7.8Z" fill="none" stroke="#001"/></g></g><g isolation="isolate"><g isolation="isolate"><path d="M273.74,26.82h9.34l3.83,22.17c1.4,8.15,2.32,21.64,2.32,21.64h.11s1.46-14.17,2.65-22.1l3.56-21.72h8.69l3.56,21.64c1.24,7.93,2.59,22.17,2.59,22.17h.11s1.13-13.64,2.54-21.72l3.73-22.1h9.34l-11.02,56.69h-9.02l-3.89-23.78c-1.13-7.01-2.21-19.58-2.21-19.58h-.11s-1.13,12.57-2.21,19.58l-3.94,23.78h-9.07l-10.91-56.69Z" fill="#f3b449"/></g><g isolation="isolate"><path d="M273.74,26.82h9.34l3.83,22.17c1.4,8.15,2.32,21.64,2.32,21.64h.11s1.46-14.17,2.65-22.1l3.56-21.72h8.69l3.56,21.64c1.24,7.93,2.59,22.17,2.59,22.17h.11s1.13-13.64,2.54-21.72l3.73-22.1h9.34l-11.02,56.69h-9.02l-3.89-23.78c-1.13-7.01-2.21-19.58-2.21-19.58h-.11s-1.13,12.57-2.21,19.58l-3.94,23.78h-9.07l-10.91-56.69Z" fill="none" stroke="#001"/></g></g><g isolation="isolate"><g isolation="isolate"><path d="M346.63,78.44h-.11c-2,3.82-4.5,6.16-9.18,6.16-5.99,0-10.38-4.37-10.38-12.56,0-9.2,5.3-11.54,11.92-12.64,5.42-1.01,7.64-2.18,7.64-5.3s-1.42-4.99-4.5-4.99c-3.42,0-5.07,2.18-5.3,5.46h-8.27c.23-7.1,4.45-13.73,13.45-13.73,3.88,0,6.61.78,8.72,2.5,3.13,2.5,4.62,6.79,4.62,12.4v21.29c0,3.28.34,5.07,1.14,5.77v.7h-8.72c-.46-.94-.85-2.73-1.03-5.07ZM346.74,68.62v-5.38c-1.31,1.09-3.25,1.72-5.24,2.34-3.93,1.17-5.81,2.5-5.81,6.08s2,4.91,4.45,4.91c3.99,0,6.61-3.43,6.61-7.96Z" fill="#f3b449"/><path d="M357,42.02h4.56v-13.26h8.78v13.26h5.93v7.8h-5.93v20.59c0,3.12,1.25,3.98,3.36,3.98.57,0,1.48-.08,2.05-.16h.46v9.13c-.97.23-2.79.62-5.19.62-5.64,0-9.46-2.5-9.46-10.92v-23.25h-4.56v-7.8Z" fill="#f3b449"/><path d="M377.29,62.84c0-12.48,6.33-22,15.56-22,4.33,0,7.75,1.95,10.43,5.3,3.42,4.52,4.96,11.54,4.9,19.73h-22.12c.57,6.24,3.02,9.98,7.35,9.98,2.79,0,4.56-1.48,5.53-4.06h8.67c-1.54,7.33-6.5,12.95-14.31,12.95-9.92,0-16.02-9.52-16.02-21.92ZM386.13,58.79h12.94c-.28-5.77-2.68-9.28-6.21-9.28-4.1,0-6.16,3.59-6.73,9.28Z" fill="#f3b449"/><path d="M419.07,49.43h.17c1.94-5.77,4.67-8.11,8.44-8.11.85,0,1.48.08,1.88.31v10.69h-.23c-.63-.16-1.25-.23-1.88-.23-4.85-.08-8.04,4.06-8.04,12.17v19.27h-8.95v-41.5h8.61v7.41Z" fill="#f3b449"/><path d="M456.01,25.48h10.09l15.33,58.03h-10.26l-2.68-11.08h-15.39l-2.62,11.08h-9.75l15.28-58.03ZM455.38,62.92h10.89l-2.57-10.84c-1.82-7.96-2.74-15.44-2.74-15.44h-.11s-1.48,9.75-2.85,15.44l-2.62,10.84Z" fill="#f3b449"/><path d="M480,62.84c0-12.48,6.21-22,15.73-22,8.09,0,13.11,6.32,14.19,15.37h-8.67c-.63-3.82-2.45-6.24-5.42-6.24-4.5,0-6.78,5.07-6.78,12.87s2.28,12.71,6.78,12.71c3.31,0,5.3-2.73,5.7-7.49h8.61c-.28,9.44-5.76,16.77-14.19,16.77-9.69,0-15.96-9.59-15.96-22Z" fill="#f3b449"/><path d="M531.08,78.44h-.11c-2,3.82-4.5,6.16-9.18,6.16-5.99,0-10.38-4.37-10.38-12.56,0-9.2,5.3-11.54,11.92-12.64,5.42-1.01,7.64-2.18,7.64-5.3s-1.42-4.99-4.5-4.99c-3.42,0-5.07,2.18-5.3,5.46h-8.27c.23-7.1,4.45-13.73,13.45-13.73,3.88,0,6.61.78,8.72,2.5,3.13,2.5,4.62,6.79,4.62,12.4v21.29c0,3.28.34,5.07,1.14,5.77v.7h-8.72c-.46-.94-.85-2.73-1.03-5.07ZM531.19,68.62v-5.38c-1.31,1.09-3.25,1.72-5.24,2.34-3.93,1.17-5.81,2.5-5.81,6.08s2,4.91,4.45,4.91c3.99,0,6.61-3.43,6.61-7.96Z" fill="#f3b449"/><path d="M542.07,62.76c0-12.71,5.25-21.92,13.11-21.92,4.16,0,6.96,2.65,9.01,6.94h.11c-.11-2.57-.23-6.08-.23-9.59v-12.71h8.95v58.03h-8.61v-6.08h-.11c-1.77,5.07-5.13,7.41-9.23,7.41-7.87,0-13-8.35-13-22.08ZM564.36,62.76c0-7.33-2.22-12.64-6.84-12.64-4.22,0-6.33,5.15-6.33,12.56s2.11,12.32,6.27,12.32,6.9-4.99,6.9-12.25Z" fill="#f3b449"/><path d="M575.31,62.84c0-12.48,6.33-22,15.56-22,4.33,0,7.75,1.95,10.43,5.3,3.42,4.52,4.96,11.54,4.9,19.73h-22.12c.57,6.24,3.02,9.98,7.35,9.98,2.79,0,4.56-1.48,5.53-4.06h8.67c-1.54,7.33-6.5,12.95-14.31,12.95-9.92,0-16.02-9.52-16.02-21.92ZM584.14,58.79h12.94c-.28-5.77-2.68-9.28-6.21-9.28-4.1,0-6.16,3.59-6.73,9.28Z" fill="#f3b449"/><path d="M608.48,42.02h8.61v6.47h.17c1.94-4.91,4.85-7.64,9.12-7.64,3.99,0,6.78,2.73,8.32,7.88h.11c2.51-5.54,5.81-7.88,9.63-7.88,6.73,0,10.2,6.08,10.2,15.29v27.38h-8.89v-25.35c0-4.52-1.6-7.25-4.5-7.25-3.19,0-5.19,3.67-5.19,8.97v23.63h-8.95v-25.35c0-4.52-1.48-7.25-4.45-7.25-3.14,0-5.25,3.67-5.25,8.97v23.63h-8.95v-41.5Z" fill="#f3b449"/><path d="M658.18,97.24v-9.59h.46c.11.08,2.68.08,2.91.08,2.79,0,4.16-1.4,4.33-4.21,0-1.4-.51-4.6-1.6-8.35l-9.41-33.15h9.41l3.88,15.91c1.37,5.62,2.51,14.43,2.51,14.43h.11s1.37-8.89,2.68-14.43l3.71-15.91h8.89l-10.83,42.51c-2.45,9.59-5.25,12.87-11.06,12.87-.29,0-5.81-.08-5.99-.16Z" fill="#f3b449"/></g><g isolation="isolate"><path d="M346.63,78.44h-.11c-2,3.82-4.5,6.16-9.18,6.16-5.99,0-10.38-4.37-10.38-12.56,0-9.2,5.3-11.54,11.92-12.64,5.42-1.01,7.64-2.18,7.64-5.3s-1.42-4.99-4.5-4.99c-3.42,0-5.07,2.18-5.3,5.46h-8.27c.23-7.1,4.45-13.73,13.45-13.73,3.88,0,6.61.78,8.72,2.5,3.13,2.5,4.62,6.79,4.62,12.4v21.29c0,3.28.34,5.07,1.14,5.77v.7h-8.72c-.46-.94-.85-2.73-1.03-5.07ZM346.74,68.62v-5.38c-1.31,1.09-3.25,1.72-5.24,2.34-3.93,1.17-5.81,2.5-5.81,6.08s2,4.91,4.45,4.91c3.99,0,6.61-3.43,6.61-7.96Z" fill="none" stroke="#001"/><path d="M357,42.02h4.56v-13.26h8.78v13.26h5.93v7.8h-5.93v20.59c0,3.12,1.25,3.98,3.36,3.98.57,0,1.48-.08,2.05-.16h.46v9.13c-.97.23-2.79.62-5.19.62-5.64,0-9.46-2.5-9.46-10.92v-23.25h-4.56v-7.8Z" fill="none" stroke="#001"/><path d="M377.29,62.84c0-12.48,6.33-22,15.56-22,4.33,0,7.75,1.95,10.43,5.3,3.42,4.52,4.96,11.54,4.9,19.73h-22.12c.57,6.24,3.02,9.98,7.35,9.98,2.79,0,4.56-1.48,5.53-4.06h8.67c-1.54,7.33-6.5,12.95-14.31,12.95-9.92,0-16.02-9.52-16.02-21.92ZM386.13,58.79h12.94c-.28-5.77-2.68-9.28-6.21-9.28-4.1,0-6.16,3.59-6.73,9.28Z" fill="none" stroke="#001"/><path d="M419.07,49.43h.17c1.94-5.77,4.67-8.11,8.44-8.11.85,0,1.48.08,1.88.31v10.69h-.23c-.63-.16-1.25-.23-1.88-.23-4.85-.08-8.04,4.06-8.04,12.17v19.27h-8.95v-41.5h8.61v7.41Z" fill="none" stroke="#001"/><path d="M456.01,25.48h10.09l15.33,58.03h-10.26l-2.68-11.08h-15.39l-2.62,11.08h-9.75l15.28-58.03ZM455.38,62.92h10.89l-2.57-10.84c-1.82-7.96-2.74-15.44-2.74-15.44h-.11s-1.48,9.75-2.85,15.44l-2.62,10.84Z" fill="none" stroke="#001"/><path d="M480,62.84c0-12.48,6.21-22,15.73-22,8.09,0,13.11,6.32,14.19,15.37h-8.67c-.63-3.82-2.45-6.24-5.42-6.24-4.5,0-6.78,5.07-6.78,12.87s2.28,12.71,6.78,12.71c3.31,0,5.3-2.73,5.7-7.49h8.61c-.28,9.44-5.76,16.77-14.19,16.77-9.69,0-15.96-9.59-15.96-22Z" fill="none" stroke="#001"/><path d="M531.08,78.44h-.11c-2,3.82-4.5,6.16-9.18,6.16-5.99,0-10.38-4.37-10.38-12.56,0-9.2,5.3-11.54,11.92-12.64,5.42-1.01,7.64-2.18,7.64-5.3s-1.42-4.99-4.5-4.99c-3.42,0-5.07,2.18-5.3,5.46h-8.27c.23-7.1,4.45-13.73,13.45-13.73,3.88,0,6.61.78,8.72,2.5,3.13,2.5,4.62,6.79,4.62,12.4v21.29c0,3.28.34,5.07,1.14,5.77v.7h-8.72c-.46-.94-.85-2.73-1.03-5.07ZM531.19,68.62v-5.38c-1.31,1.09-3.25,1.72-5.24,2.34-3.93,1.17-5.81,2.5-5.81,6.08s2,4.91,4.45,4.91c3.99,0,6.61-3.43,6.61-7.96Z" fill="none" stroke="#001"/><path d="M542.07,62.76c0-12.71,5.25-21.92,13.11-21.92,4.16,0,6.96,2.65,9.01,6.94h.11c-.11-2.57-.23-6.08-.23-9.59v-12.71h8.95v58.03h-8.61v-6.08h-.11c-1.77,5.07-5.13,7.41-9.23,7.41-7.87,0-13-8.35-13-22.08ZM564.36,62.76c0-7.33-2.22-12.64-6.84-12.64-4.22,0-6.33,5.15-6.33,12.56s2.11,12.32,6.27,12.32,6.9-4.99,6.9-12.25Z" fill="none" stroke="#001"/><path d="M575.31,62.84c0-12.48,6.33-22,15.56-22,4.33,0,7.75,1.95,10.43,5.3,3.42,4.52,4.96,11.54,4.9,19.73h-22.12c.57,6.24,3.02,9.98,7.35,9.98,2.79,0,4.56-1.48,5.53-4.06h8.67c-1.54,7.33-6.5,12.95-14.31,12.95-9.92,0-16.02-9.52-16.02-21.92ZM584.14,58.79h12.94c-.28-5.77-2.68-9.28-6.21-9.28-4.1,0-6.16,3.59-6.73,9.28Z" fill="none" stroke="#001"/><path d="M608.48,42.02h8.61v6.47h.17c1.94-4.91,4.85-7.64,9.12-7.64,3.99,0,6.78,2.73,8.32,7.88h.11c2.51-5.54,5.81-7.88,9.63-7.88,6.73,0,10.2,6.08,10.2,15.29v27.38h-8.89v-25.35c0-4.52-1.6-7.25-4.5-7.25-3.19,0-5.19,3.67-5.19,8.97v23.63h-8.95v-25.35c0-4.52-1.48-7.25-4.45-7.25-3.14,0-5.25,3.67-5.25,8.97v23.63h-8.95v-41.5Z" fill="none" stroke="#001"/><path d="M658.18,97.24v-9.59h.46c.11.08,2.68.08,2.91.08,2.79,0,4.16-1.4,4.33-4.21,0-1.4-.51-4.6-1.6-8.35l-9.41-33.15h9.41l3.88,15.91c1.37,5.62,2.51,14.43,2.51,14.43h.11s1.37-8.89,2.68-14.43l3.71-15.91h8.89l-10.83,42.51c-2.45,9.59-5.25,12.87-11.06,12.87-.29,0-5.81-.08-5.99-.16Z" fill="none" stroke="#001"/></g></g></svg>